<svg width="375" height="812" viewBox="0 0 375 812" fill="none" xmlns="http://www.w3.org/2000/svg">
<rect width="375" height="812" fill="#FFF4D9"/>
<rect x="213" y="626" width="232" height="196" rx="20" fill="#427AAF"/>
<rect x="-116" y="245" width="232" height="172" rx="20" fill="#54A976"/>
<rect x="-79" y="103" width="237" height="101" rx="20" fill="#427AAF"/>
<rect x="16" y="-45" width="142" height="114" rx="20" fill="#D895AF"/>
<rect x="27" y="368" width="36" height="172" rx="18" fill="#54A976"/>
<rect x="-62" y="454" width="232" height="172" rx="20" fill="#54A976"/>
<rect x="188" y="368" width="301" height="213" rx="20" fill="#EDC86C"/>
<rect x="214" y="204" width="171" height="142" rx="20" fill="#EDC86C"/>
<rect x="258" y="275" width="44" height="142" rx="20" fill="#EDC86C"/>
<rect x="186" y="-45" width="232" height="217" rx="20" fill="#E47260"/>
<rect x="-44" y="667" width="232" height="172" rx="20" fill="#E47260"/>
<path d="M282.912 724.88C284.048 724.88 285.088 725.032 286.032 725.336C286.976 725.64 287.784 726.096 288.456 726.704C289.144 727.312 289.672 728.072 290.04 728.984C290.424 729.88 290.616 730.928 290.616 732.128C290.616 733.52 290.392 734.72 289.944 735.728C289.496 736.72 288.888 737.536 288.12 738.176C287.352 738.8 286.456 739.264 285.432 739.568C284.424 739.856 283.344 740 282.192 740H277.752V724.88H282.912ZM280.68 737.696H281.976C282.68 737.696 283.36 737.616 284.016 737.456C284.688 737.28 285.28 736.984 285.792 736.568C286.304 736.152 286.712 735.584 287.016 734.864C287.336 734.144 287.496 733.232 287.496 732.128C287.496 730.528 287.04 729.304 286.128 728.456C285.232 727.608 284.016 727.184 282.48 727.184H280.68V737.696ZM296.397 734.096H300.597L299.805 731.864C299.581 731.192 299.365 730.56 299.157 729.968C298.965 729.376 298.765 728.728 298.557 728.024H298.509C298.285 728.68 298.069 729.32 297.861 729.944C297.653 730.552 297.429 731.192 297.189 731.864L296.397 734.096ZM297.117 724.88H300.045L305.781 740H302.685L301.341 736.28H295.701L294.357 740H291.309L297.117 724.88ZM307.183 724.88L310.591 731.048L314.023 724.88H317.191L311.959 733.736V740H309.031V733.736L303.919 724.88H307.183ZM327.918 724.88H330.174V740H327.39V727.568L324.606 728.888L323.958 726.704L327.918 724.88Z" fill="#F5F5F5"/>
<path d="M271.912 465.88C273.048 465.88 274.088 466.032 275.032 466.336C275.976 466.64 276.784 467.096 277.456 467.704C278.144 468.312 278.672 469.072 279.04 469.984C279.424 470.88 279.616 471.928 279.616 473.128C279.616 474.52 279.392 475.72 278.944 476.728C278.496 477.72 277.888 478.536 277.12 479.176C276.352 479.8 275.456 480.264 274.432 480.568C273.424 480.856 272.344 481 271.192 481H266.752V465.88H271.912ZM269.68 478.696H270.976C271.68 478.696 272.36 478.616 273.016 478.456C273.688 478.28 274.28 477.984 274.792 477.568C275.304 477.152 275.712 476.584 276.016 475.864C276.336 475.144 276.496 474.232 276.496 473.128C276.496 471.528 276.04 470.304 275.128 469.456C274.232 468.608 273.016 468.184 271.48 468.184H269.68V478.696ZM285.397 475.096H289.597L288.805 472.864C288.581 472.192 288.365 471.56 288.157 470.968C287.965 470.376 287.765 469.728 287.557 469.024H287.509C287.285 469.68 287.069 470.32 286.861 470.944C286.653 471.552 286.429 472.192 286.189 472.864L285.397 475.096ZM286.117 465.88H289.045L294.781 481H291.685L290.341 477.28H284.701L283.357 481H280.309L286.117 465.88ZM296.183 465.88L299.591 472.048L303.023 465.88H306.191L300.959 474.736V481H298.031V474.736L292.919 465.88H296.183ZM317.086 467.848C316.574 467.848 316.086 467.944 315.622 468.136C315.174 468.312 314.686 468.608 314.158 469.024L312.982 467.2C313.638 466.656 314.31 466.264 314.998 466.024C315.702 465.768 316.486 465.64 317.35 465.64C318.134 465.64 318.83 465.752 319.438 465.976C320.046 466.2 320.55 466.512 320.95 466.912C321.366 467.312 321.678 467.784 321.886 468.328C322.094 468.872 322.198 469.464 322.198 470.104C322.198 471.192 321.79 472.328 320.974 473.512C320.174 474.68 319.046 475.968 317.59 477.376L316.102 478.768H322.438V481H313.222L312.718 479.08L314.806 476.992C315.638 476.16 316.342 475.424 316.918 474.784C317.494 474.144 317.958 473.568 318.31 473.056C318.662 472.528 318.918 472.048 319.078 471.616C319.238 471.168 319.318 470.728 319.318 470.296C319.318 469.528 319.118 468.928 318.718 468.496C318.318 468.064 317.774 467.848 317.086 467.848Z" fill="#F5F5F5"/>
<path d="M286.912 266.88C288.048 266.88 289.088 267.032 290.032 267.336C290.976 267.64 291.784 268.096 292.456 268.704C293.144 269.312 293.672 270.072 294.04 270.984C294.424 271.88 294.616 272.928 294.616 274.128C294.616 275.52 294.392 276.72 293.944 277.728C293.496 278.72 292.888 279.536 292.12 280.176C291.352 280.8 290.456 281.264 289.432 281.568C288.424 281.856 287.344 282 286.192 282H281.752V266.88H286.912ZM284.68 279.696H285.976C286.68 279.696 287.36 279.616 288.016 279.456C288.688 279.28 289.28 278.984 289.792 278.568C290.304 278.152 290.712 277.584 291.016 276.864C291.336 276.144 291.496 275.232 291.496 274.128C291.496 272.528 291.04 271.304 290.128 270.456C289.232 269.608 288.016 269.184 286.48 269.184H284.68V279.696ZM300.397 276.096H304.597L303.805 273.864C303.581 273.192 303.365 272.56 303.157 271.968C302.965 271.376 302.765 270.728 302.557 270.024H302.509C302.285 270.68 302.069 271.32 301.861 271.944C301.653 272.552 301.429 273.192 301.189 273.864L300.397 276.096ZM301.117 266.88H304.045L309.781 282H306.685L305.341 278.28H299.701L298.357 282H295.309L301.117 266.88ZM311.183 266.88L314.591 273.048L318.023 266.88H321.191L315.959 275.736V282H313.031V275.736L307.919 266.88H311.183ZM327.958 267.744C328.55 267.36 329.174 267.08 329.83 266.904C330.502 266.728 331.222 266.64 331.99 266.64C332.71 266.64 333.358 266.744 333.934 266.952C334.526 267.144 335.03 267.416 335.446 267.768C335.862 268.12 336.182 268.536 336.406 269.016C336.63 269.496 336.742 270.016 336.742 270.576C336.742 271.52 336.494 272.296 335.998 272.904C335.518 273.496 334.926 273.928 334.222 274.2C335.134 274.392 335.87 274.816 336.43 275.472C336.99 276.112 337.27 276.888 337.27 277.8C337.27 278.584 337.118 279.256 336.814 279.816C336.526 280.376 336.126 280.84 335.614 281.208C335.102 281.56 334.51 281.824 333.838 282C333.166 282.16 332.454 282.24 331.702 282.24C330.934 282.24 330.198 282.168 329.494 282.024C328.79 281.88 328.174 281.672 327.646 281.4L328.246 279.336C328.758 279.56 329.246 279.736 329.71 279.864C330.174 279.992 330.734 280.056 331.39 280.056C331.79 280.056 332.166 280.016 332.518 279.936C332.886 279.84 333.206 279.696 333.478 279.504C333.75 279.312 333.958 279.072 334.102 278.784C334.262 278.496 334.342 278.152 334.342 277.752C334.342 277 334.078 276.432 333.55 276.048C333.022 275.648 332.286 275.448 331.342 275.448H329.59V273.336H330.886C331.798 273.336 332.518 273.136 333.046 272.736C333.59 272.32 333.862 271.712 333.862 270.912C333.862 270.272 333.638 269.76 333.19 269.376C332.758 268.992 332.214 268.8 331.558 268.8C331.094 268.8 330.654 268.864 330.238 268.992C329.822 269.12 329.358 269.336 328.846 269.64L327.958 267.744Z" fill="#F5F5F5"/>
<path d="M276.912 55.88C278.048 55.88 279.088 56.032 280.032 56.336C280.976 56.64 281.784 57.096 282.456 57.704C283.144 58.312 283.672 59.072 284.04 59.984C284.424 60.88 284.616 61.928 284.616 63.128C284.616 64.52 284.392 65.72 283.944 66.728C283.496 67.72 282.888 68.536 282.12 69.176C281.352 69.8 280.456 70.264 279.432 70.568C278.424 70.856 277.344 71 276.192 71H271.752V55.88H276.912ZM274.68 68.696H275.976C276.68 68.696 277.36 68.616 278.016 68.456C278.688 68.28 279.28 67.984 279.792 67.568C280.304 67.152 280.712 66.584 281.016 65.864C281.336 65.144 281.496 64.232 281.496 63.128C281.496 61.528 281.04 60.304 280.128 59.456C279.232 58.608 278.016 58.184 276.48 58.184H274.68V68.696ZM290.397 65.096H294.597L293.805 62.864C293.581 62.192 293.365 61.56 293.157 60.968C292.965 60.376 292.765 59.728 292.557 59.024H292.509C292.285 59.68 292.069 60.32 291.861 60.944C291.653 61.552 291.429 62.192 291.189 62.864L290.397 65.096ZM291.117 55.88H294.045L299.781 71H296.685L295.341 67.28H289.701L288.357 71H285.309L291.117 55.88ZM301.183 55.88L304.591 62.048L308.023 55.88H311.191L305.959 64.736V71H303.031V64.736L297.919 55.88H301.183ZM323.91 55.88H327.006V65.168H329.262V67.4H327.006V71H324.318V67.4H317.238V65.6L323.91 55.88ZM323.07 61.016L320.214 65.168H324.318V61.232L324.438 58.568H324.39L323.07 61.016Z" fill="#F5F5F5"/>
<path d="M24.912 145.88C26.048 145.88 27.088 146.032 28.032 146.336C28.976 146.64 29.784 147.096 30.456 147.704C31.144 148.312 31.672 149.072 32.04 149.984C32.424 150.88 32.616 151.928 32.616 153.128C32.616 154.52 32.392 155.72 31.944 156.728C31.496 157.72 30.888 158.536 30.12 159.176C29.352 159.8 28.456 160.264 27.432 160.568C26.424 160.856 25.344 161 24.192 161H19.752V145.88H24.912ZM22.68 158.696H23.976C24.68 158.696 25.36 158.616 26.016 158.456C26.688 158.28 27.28 157.984 27.792 157.568C28.304 157.152 28.712 156.584 29.016 155.864C29.336 155.144 29.496 154.232 29.496 153.128C29.496 151.528 29.04 150.304 28.128 149.456C27.232 148.608 26.016 148.184 24.48 148.184H22.68V158.696ZM38.3966 155.096H42.5966L41.8046 152.864C41.5806 152.192 41.3646 151.56 41.1566 150.968C40.9646 150.376 40.7646 149.728 40.5566 149.024H40.5086C40.2846 149.68 40.0686 150.32 39.8606 150.944C39.6526 151.552 39.4286 152.192 39.1886 152.864L38.3966 155.096ZM39.1166 145.88H42.0446L47.7806 161H44.6846L43.3406 157.28H37.7006L36.3566 161H33.3086L39.1166 145.88ZM49.1831 145.88L52.5911 152.048L56.0231 145.88H59.1911L53.9591 154.736V161H51.0311V154.736L45.9191 145.88H49.1831ZM72.5098 145.64C73.0698 145.64 73.5978 145.68 74.0938 145.76C74.5898 145.84 75.0698 145.984 75.5338 146.192L74.8858 148.352C74.5498 148.176 74.1898 148.048 73.8058 147.968C73.4378 147.872 73.0298 147.824 72.5818 147.824C71.9578 147.824 71.4058 147.936 70.9258 148.16C70.4618 148.384 70.0618 148.696 69.7258 149.096C69.4058 149.48 69.1498 149.944 68.9578 150.488C68.7818 151.032 68.6778 151.624 68.6458 152.264C69.0618 151.816 69.5578 151.488 70.1338 151.28C70.7258 151.056 71.3418 150.944 71.9818 150.944C72.6698 150.944 73.3098 151.056 73.9018 151.28C74.5098 151.504 75.0298 151.832 75.4618 152.264C75.8938 152.68 76.2298 153.2 76.4698 153.824C76.7258 154.432 76.8538 155.128 76.8538 155.912C76.8538 156.712 76.7178 157.44 76.4458 158.096C76.1898 158.736 75.8218 159.296 75.3418 159.776C74.8778 160.24 74.3098 160.6 73.6378 160.856C72.9818 161.112 72.2538 161.24 71.4538 161.24C70.7498 161.24 70.0538 161.112 69.3658 160.856C68.6938 160.6 68.0858 160.192 67.5418 159.632C66.9978 159.056 66.5578 158.312 66.2218 157.4C65.8858 156.472 65.7178 155.344 65.7178 154.016C65.7178 152.512 65.9098 151.232 66.2938 150.176C66.6778 149.104 67.1898 148.232 67.8298 147.56C68.4698 146.888 69.1898 146.4 69.9898 146.096C70.8058 145.792 71.6458 145.64 72.5098 145.64ZM68.6218 155.552C68.6218 156.048 68.6858 156.512 68.8138 156.944C68.9578 157.376 69.1498 157.76 69.3898 158.096C69.6298 158.416 69.9258 158.672 70.2778 158.864C70.6298 159.04 71.0218 159.128 71.4538 159.128C71.8378 159.128 72.1898 159.048 72.5098 158.888C72.8298 158.728 73.1018 158.504 73.3258 158.216C73.5498 157.928 73.7178 157.592 73.8298 157.208C73.9578 156.824 74.0218 156.416 74.0218 155.984C74.0218 155.008 73.7818 154.288 73.3018 153.824C72.8218 153.344 72.1818 153.104 71.3818 153.104C70.8058 153.104 70.3098 153.232 69.8938 153.488C69.4938 153.744 69.1818 154.032 68.9578 154.352C68.7338 154.672 68.6218 155.072 68.6218 155.552Z" fill="#F5F5F5"/>
<path d="M67.912 15.88C69.048 15.88 70.088 16.032 71.032 16.336C71.976 16.64 72.784 17.096 73.456 17.704C74.144 18.312 74.672 19.072 75.04 19.984C75.424 20.88 75.616 21.928 75.616 23.128C75.616 24.52 75.392 25.72 74.944 26.728C74.496 27.72 73.888 28.536 73.12 29.176C72.352 29.8 71.456 30.264 70.432 30.568C69.424 30.856 68.344 31 67.192 31H62.752V15.88H67.912ZM65.68 28.696H66.976C67.68 28.696 68.36 28.616 69.016 28.456C69.688 28.28 70.28 27.984 70.792 27.568C71.304 27.152 71.712 26.584 72.016 25.864C72.336 25.144 72.496 24.232 72.496 23.128C72.496 21.528 72.04 20.304 71.128 19.456C70.232 18.608 69.016 18.184 67.48 18.184H65.68V28.696ZM81.3966 25.096H85.5966L84.8046 22.864C84.5806 22.192 84.3646 21.56 84.1566 20.968C83.9646 20.376 83.7646 19.728 83.5566 19.024H83.5086C83.2846 19.68 83.0686 20.32 82.8606 20.944C82.6526 21.552 82.4286 22.192 82.1886 22.864L81.3966 25.096ZM82.1166 15.88H85.0446L90.7806 31H87.6846L86.3406 27.28H80.7006L79.3566 31H76.3086L82.1166 15.88ZM92.1831 15.88L95.5911 22.048L99.0231 15.88H102.191L96.9591 24.736V31H94.0311V24.736L88.9191 15.88H92.1831ZM118.654 15.88V17.728L112.222 31.528L109.774 30.472L115.894 17.992H109.006V15.88H118.654Z" fill="#F5F5F5"/>
<path d="M22.912 327.88C24.048 327.88 25.088 328.032 26.032 328.336C26.976 328.64 27.784 329.096 28.456 329.704C29.144 330.312 29.672 331.072 30.04 331.984C30.424 332.88 30.616 333.928 30.616 335.128C30.616 336.52 30.392 337.72 29.944 338.728C29.496 339.72 28.888 340.536 28.12 341.176C27.352 341.8 26.456 342.264 25.432 342.568C24.424 342.856 23.344 343 22.192 343H17.752V327.88H22.912ZM20.68 340.696H21.976C22.68 340.696 23.36 340.616 24.016 340.456C24.688 340.28 25.28 339.984 25.792 339.568C26.304 339.152 26.712 338.584 27.016 337.864C27.336 337.144 27.496 336.232 27.496 335.128C27.496 333.528 27.04 332.304 26.128 331.456C25.232 330.608 24.016 330.184 22.48 330.184H20.68V340.696ZM36.3966 337.096H40.5966L39.8046 334.864C39.5806 334.192 39.3646 333.56 39.1566 332.968C38.9646 332.376 38.7646 331.728 38.5566 331.024H38.5086C38.2846 331.68 38.0686 332.32 37.8606 332.944C37.6526 333.552 37.4286 334.192 37.1886 334.864L36.3966 337.096ZM37.1166 327.88H40.0446L45.7806 343H42.6846L41.3406 339.28H35.7006L34.3566 343H31.3086L37.1166 327.88ZM47.1831 327.88L50.5911 334.048L54.0231 327.88H57.1911L51.9591 336.736V343H49.0311V336.736L43.9191 327.88H47.1831ZM69.0218 327.64C69.8378 327.64 70.5498 327.752 71.1578 327.976C71.7818 328.184 72.2938 328.472 72.6938 328.84C73.1098 329.192 73.4218 329.6 73.6298 330.064C73.8378 330.528 73.9418 331.008 73.9418 331.504C73.9418 332.272 73.6938 332.96 73.1978 333.568C72.7178 334.16 72.0458 334.64 71.1818 335.008C72.1258 335.36 72.8858 335.832 73.4618 336.424C74.0378 337.016 74.3258 337.792 74.3258 338.752C74.3258 339.456 74.1898 340.088 73.9178 340.648C73.6618 341.192 73.2938 341.656 72.8138 342.04C72.3338 342.424 71.7578 342.72 71.0858 342.928C70.4298 343.136 69.7018 343.24 68.9018 343.24C68.1178 343.24 67.3978 343.144 66.7418 342.952C66.0858 342.744 65.5178 342.456 65.0378 342.088C64.5738 341.72 64.2058 341.28 63.9338 340.768C63.6778 340.24 63.5498 339.656 63.5498 339.016C63.5498 338.024 63.8138 337.24 64.3418 336.664C64.8858 336.088 65.6218 335.608 66.5498 335.224C65.7978 334.888 65.1898 334.424 64.7258 333.832C64.2778 333.24 64.0538 332.56 64.0538 331.792C64.0538 331.264 64.1578 330.752 64.3658 330.256C64.5738 329.76 64.8858 329.32 65.3018 328.936C65.7178 328.536 66.2298 328.224 66.8378 328C67.4618 327.76 68.1898 327.64 69.0218 327.64ZM66.7658 331.6C66.7658 332.256 66.9898 332.784 67.4378 333.184C67.9018 333.568 68.4538 333.856 69.0938 334.048C69.6698 333.824 70.1658 333.512 70.5818 333.112C70.9978 332.712 71.2058 332.232 71.2058 331.672C71.2058 331.048 70.9898 330.568 70.5578 330.232C70.1418 329.88 69.6138 329.704 68.9738 329.704C68.2538 329.704 67.7018 329.896 67.3178 330.28C66.9498 330.664 66.7658 331.104 66.7658 331.6ZM68.7818 336.304C68.0778 336.528 67.5018 336.848 67.0538 337.264C66.6218 337.68 66.4058 338.232 66.4058 338.92C66.4058 339.544 66.6218 340.072 67.0538 340.504C67.5018 340.92 68.1418 341.128 68.9738 341.128C69.7418 341.128 70.3498 340.912 70.7978 340.48C71.2618 340.048 71.4938 339.528 71.4938 338.92C71.4938 338.232 71.2298 337.672 70.7018 337.24C70.1898 336.808 69.5498 336.496 68.7818 336.304Z" fill="#F5F5F5"/>
<path d="M39.912 533.88C41.048 533.88 42.088 534.032 43.032 534.336C43.976 534.64 44.784 535.096 45.456 535.704C46.144 536.312 46.672 537.072 47.04 537.984C47.424 538.88 47.616 539.928 47.616 541.128C47.616 542.52 47.392 543.72 46.944 544.728C46.496 545.72 45.888 546.536 45.12 547.176C44.352 547.8 43.456 548.264 42.432 548.568C41.424 548.856 40.344 549 39.192 549H34.752V533.88H39.912ZM37.68 546.696H38.976C39.68 546.696 40.36 546.616 41.016 546.456C41.688 546.28 42.28 545.984 42.792 545.568C43.304 545.152 43.712 544.584 44.016 543.864C44.336 543.144 44.496 542.232 44.496 541.128C44.496 539.528 44.04 538.304 43.128 537.456C42.232 536.608 41.016 536.184 39.48 536.184H37.68V546.696ZM53.3966 543.096H57.5966L56.8046 540.864C56.5806 540.192 56.3646 539.56 56.1566 538.968C55.9646 538.376 55.7646 537.728 55.5566 537.024H55.5086C55.2846 537.68 55.0686 538.32 54.8606 538.944C54.6526 539.552 54.4286 540.192 54.1886 540.864L53.3966 543.096ZM54.1166 533.88H57.0446L62.7806 549H59.6846L58.3406 545.28H52.7006L51.3566 549H48.3086L54.1166 533.88ZM64.1831 533.88L67.5911 540.048L71.0231 533.88H74.1911L68.9591 542.736V549H66.0311V542.736L60.9191 533.88H64.1831ZM85.0138 549.24C84.2298 549.24 83.5498 549.176 82.9738 549.048C82.4138 548.936 81.9338 548.776 81.5338 548.568L82.1578 546.456C82.4938 546.616 82.8698 546.76 83.2858 546.888C83.7018 547 84.2058 547.056 84.7978 547.056C86.0458 547.056 86.9738 546.672 87.5818 545.904C88.2058 545.12 88.5578 544.024 88.6378 542.616C88.2858 542.984 87.8458 543.28 87.3178 543.504C86.7898 543.712 86.2058 543.816 85.5658 543.816C84.8458 543.816 84.1818 543.712 83.5738 543.504C82.9818 543.28 82.4698 542.96 82.0378 542.544C81.6058 542.112 81.2698 541.592 81.0298 540.984C80.7898 540.376 80.6698 539.68 80.6698 538.896C80.6698 538.112 80.7978 537.4 81.0538 536.76C81.3098 536.104 81.6778 535.544 82.1578 535.08C82.6378 534.616 83.2138 534.264 83.8858 534.024C84.5578 533.768 85.3098 533.64 86.1418 533.64C86.8458 533.64 87.5178 533.776 88.1578 534.048C88.8138 534.304 89.3898 534.72 89.8858 535.296C90.3978 535.872 90.8058 536.616 91.1098 537.528C91.4138 538.424 91.5658 539.512 91.5658 540.792C91.5658 542.28 91.3978 543.56 91.0618 544.632C90.7258 545.704 90.2618 546.584 89.6698 547.272C89.0778 547.944 88.3818 548.44 87.5818 548.76C86.7978 549.08 85.9418 549.24 85.0138 549.24ZM88.6378 539.352C88.6378 538.856 88.5738 538.392 88.4458 537.96C88.3338 537.528 88.1658 537.152 87.9418 536.832C87.7178 536.496 87.4458 536.232 87.1258 536.04C86.8058 535.848 86.4458 535.752 86.0458 535.752C85.2618 535.752 84.6378 536.008 84.1738 536.52C83.7258 537.032 83.5018 537.768 83.5018 538.728C83.5018 539.736 83.7418 540.48 84.2218 540.96C84.7018 541.424 85.3418 541.656 86.1418 541.656C86.6538 541.656 87.0938 541.552 87.4618 541.344C87.8458 541.12 88.1418 540.848 88.3498 540.528C88.4618 540.368 88.5338 540.2 88.5658 540.024C88.6138 539.832 88.6378 539.608 88.6378 539.352Z" fill="#F5F5F5"/>
<path d="M39.912 751.88C41.048 751.88 42.088 752.032 43.032 752.336C43.976 752.64 44.784 753.096 45.456 753.704C46.144 754.312 46.672 755.072 47.04 755.984C47.424 756.88 47.616 757.928 47.616 759.128C47.616 760.52 47.392 761.72 46.944 762.728C46.496 763.72 45.888 764.536 45.12 765.176C44.352 765.8 43.456 766.264 42.432 766.568C41.424 766.856 40.344 767 39.192 767H34.752V751.88H39.912ZM37.68 764.696H38.976C39.68 764.696 40.36 764.616 41.016 764.456C41.688 764.28 42.28 763.984 42.792 763.568C43.304 763.152 43.712 762.584 44.016 761.864C44.336 761.144 44.496 760.232 44.496 759.128C44.496 757.528 44.04 756.304 43.128 755.456C42.232 754.608 41.016 754.184 39.48 754.184H37.68V764.696ZM53.3966 761.096H57.5966L56.8046 758.864C56.5806 758.192 56.3646 757.56 56.1566 756.968C55.9646 756.376 55.7646 755.728 55.5566 755.024H55.5086C55.2846 755.68 55.0686 756.32 54.8606 756.944C54.6526 757.552 54.4286 758.192 54.1886 758.864L53.3966 761.096ZM54.1166 751.88H57.0446L62.7806 767H59.6846L58.3406 763.28H52.7006L51.3566 767H48.3086L54.1166 751.88ZM64.1831 751.88L67.5911 758.048L71.0231 751.88H74.1911L68.9591 760.736V767H66.0311V760.736L60.9191 751.88H64.1831ZM84.9178 751.88H87.1738V767H84.3898V754.568L81.6058 755.888L80.9578 753.704L84.9178 751.88ZM96.2351 751.64C97.1151 751.64 97.9231 751.792 98.6591 752.096C99.4111 752.384 100.059 752.84 100.603 753.464C101.147 754.088 101.571 754.896 101.875 755.888C102.195 756.864 102.355 758.04 102.355 759.416C102.355 760.792 102.187 761.976 101.851 762.968C101.515 763.944 101.067 764.752 100.507 765.392C99.9471 766.016 99.2991 766.48 98.5631 766.784C97.8271 767.088 97.0511 767.24 96.2351 767.24C95.3551 767.24 94.5391 767.096 93.7871 766.808C93.0511 766.504 92.4111 766.04 91.8671 765.416C91.3231 764.776 90.8911 763.96 90.5711 762.968C90.2671 761.976 90.1151 760.792 90.1151 759.416C90.1151 758.104 90.2831 756.96 90.6191 755.984C90.9551 755.008 91.4031 754.2 91.9631 753.56C92.5231 752.904 93.1711 752.424 93.9071 752.12C94.6431 751.8 95.4191 751.64 96.2351 751.64ZM93.0431 759.416C93.0431 760.552 93.1311 761.488 93.3071 762.224C93.4831 762.96 93.7151 763.544 94.0031 763.976C94.3071 764.392 94.6511 764.688 95.0351 764.864C95.4351 765.024 95.8431 765.104 96.2591 765.104C96.6751 765.104 97.0751 765.016 97.4591 764.84C97.8431 764.664 98.1791 764.36 98.4671 763.928C98.7551 763.48 98.9871 762.896 99.1631 762.176C99.3391 761.44 99.4271 760.52 99.4271 759.416C99.4271 758.296 99.3391 757.368 99.1631 756.632C98.9871 755.896 98.7471 755.32 98.4431 754.904C98.1551 754.488 97.8191 754.2 97.4351 754.04C97.0511 753.864 96.6511 753.776 96.2351 753.776C95.8191 753.776 95.4191 753.864 95.0351 754.04C94.6511 754.216 94.3071 754.52 94.0031 754.952C93.7151 755.368 93.4831 755.944 93.3071 756.68C93.1311 757.4 93.0431 758.312 93.0431 759.416Z" fill="#F5F5F5"/>
</svg>
