<svg width="305" height="397" viewBox="0 0 305 397" fill="none" xmlns="http://www.w3.org/2000/svg">
<g filter="url(#filter0_d_19_4)">
<circle cx="152.5" cy="152.5" r="137.5" fill="#B1D6C6"/>
</g>
<ellipse cx="133" cy="116.5" rx="7" ry="10.5" fill="#343542"/>
<ellipse cx="171" cy="116.5" rx="7" ry="10.5" fill="#343542"/>
<path d="M58.256 383V336.504C60.4747 336.056 62.7573 335.704 65.104 335.448C67.472 335.192 69.968 335.064 72.592 335.064C79.632 335.064 84.9227 336.44 88.464 339.192C92.0267 341.923 93.808 346.253 93.808 352.184C93.808 357.773 92.08 362.019 88.624 364.92C85.1893 367.821 80.0587 369.272 73.232 369.272C72.4213 369.272 71.6533 369.261 70.928 369.24C70.2027 369.197 69.4453 369.144 68.656 369.08V383H58.256ZM73.36 361.464C76.9227 361.464 79.536 360.749 81.2 359.32C82.864 357.869 83.696 355.512 83.696 352.248C83.696 348.963 82.864 346.584 81.2 345.112C79.5573 343.619 77.008 342.872 73.552 342.872C72.592 342.872 71.728 342.904 70.96 342.968C70.192 343.011 69.424 343.107 68.656 343.256V361.176C69.4453 361.261 70.2027 361.336 70.928 361.4C71.6533 361.443 72.464 361.464 73.36 361.464Z" fill="#E47260"/>
<path d="M115.389 383.672C111.89 383.672 108.861 383.011 106.301 381.688C103.762 380.344 101.8 378.339 100.413 375.672C99.0263 372.984 98.333 369.624 98.333 365.592C98.333 361.517 99.005 358.136 100.349 355.448C101.714 352.76 103.666 350.755 106.205 349.432C108.765 348.109 111.826 347.448 115.389 347.448C118.952 347.448 122.002 348.12 124.541 349.464C127.101 350.787 129.053 352.792 130.397 355.48C131.762 358.147 132.445 361.496 132.445 365.528C132.445 369.581 131.752 372.952 130.365 375.64C128.978 378.328 127.005 380.344 124.445 381.688C121.906 383.011 118.888 383.672 115.389 383.672ZM115.389 375.928C116.818 375.928 118.034 375.619 119.037 375C120.061 374.381 120.84 373.325 121.373 371.832C121.906 370.317 122.173 368.248 122.173 365.624C122.173 362.936 121.906 360.835 121.373 359.32C120.84 357.805 120.061 356.739 119.037 356.12C118.034 355.48 116.818 355.16 115.389 355.16C113.96 355.16 112.733 355.469 111.709 356.088C110.706 356.707 109.938 357.773 109.405 359.288C108.872 360.781 108.605 362.851 108.605 365.496C108.605 368.184 108.872 370.285 109.405 371.8C109.938 373.315 110.706 374.381 111.709 375C112.733 375.619 113.96 375.928 115.389 375.928Z" fill="#EDC86C"/>
<path d="M138.433 383V347.992H146.849L147.521 351.576H148.001C149.238 350.211 150.678 349.187 152.321 348.504C153.985 347.8 155.82 347.448 157.825 347.448C159.894 347.448 161.75 347.896 163.393 348.792C165.057 349.667 166.358 351.096 167.297 353.08C168.257 355.043 168.737 357.645 168.737 360.888V383H158.753V361.752C158.753 359.661 158.358 358.221 157.569 357.432C156.801 356.621 155.734 356.216 154.369 356.216C153.686 356.216 152.982 356.323 152.257 356.536C151.553 356.749 150.881 357.069 150.241 357.496C149.622 357.923 149.078 358.467 148.609 359.128V383H138.433ZM178.657 383V361.752C178.657 359.661 178.23 358.221 177.377 357.432C176.524 356.621 175.425 356.216 174.081 356.216C173.334 356.216 172.588 356.333 171.841 356.568C171.116 356.781 170.422 357.123 169.761 357.592C169.1 358.061 168.524 358.669 168.033 359.416L166.017 352.792C167.574 350.893 169.334 349.528 171.297 348.696C173.26 347.864 175.233 347.448 177.217 347.448C179.457 347.448 181.452 347.896 183.201 348.792C184.95 349.688 186.326 351.149 187.329 353.176C188.332 355.203 188.833 357.88 188.833 361.208V383H178.657Z" fill="#54A976"/>
<path d="M196.631 383V336.504C198.85 336.056 201.132 335.704 203.479 335.448C205.847 335.192 208.343 335.064 210.967 335.064C218.007 335.064 223.298 336.44 226.839 339.192C230.402 341.923 232.183 346.253 232.183 352.184C232.183 357.773 230.455 362.019 226.999 364.92C223.564 367.821 218.434 369.272 211.607 369.272C210.796 369.272 210.028 369.261 209.303 369.24C208.578 369.197 207.82 369.144 207.031 369.08V383H196.631ZM211.735 361.464C215.298 361.464 217.911 360.749 219.575 359.32C221.239 357.869 222.071 355.512 222.071 352.248C222.071 348.963 221.239 346.584 219.575 345.112C217.932 343.619 215.383 342.872 211.927 342.872C210.967 342.872 210.103 342.904 209.335 342.968C208.567 343.011 207.799 343.107 207.031 343.256V361.176C207.82 361.261 208.578 361.336 209.303 361.4C210.028 361.443 210.839 361.464 211.735 361.464Z" fill="#427AAF"/>
<path d="M238.308 383V347.992H248.516V383H238.308ZM243.396 342.904C241.263 342.904 239.673 342.435 238.628 341.496C237.604 340.557 237.092 339.256 237.092 337.592C237.092 335.885 237.604 334.573 238.628 333.656C239.673 332.717 241.263 332.248 243.396 332.248C245.551 332.248 247.14 332.717 248.164 333.656C249.188 334.573 249.7 335.885 249.7 337.592C249.7 339.256 249.188 340.557 248.164 341.496C247.14 342.435 245.551 342.904 243.396 342.904Z" fill="#D895AF"/>
<defs>
<filter id="filter0_d_19_4" x="0" y="0" width="305" height="305" filterUnits="userSpaceOnUse" color-interpolation-filters="sRGB">
<feFlood flood-opacity="0" result="BackgroundImageFix"/>
<feColorMatrix in="SourceAlpha" type="matrix" values="0 0 0 0 0 0 0 0 0 0 0 0 0 0 0 0 0 0 127 0" result="hardAlpha"/>
<feMorphology radius="5" operator="dilate" in="SourceAlpha" result="effect1_dropShadow_19_4"/>
<feOffset/>
<feGaussianBlur stdDeviation="5"/>
<feComposite in2="hardAlpha" operator="out"/>
<feColorMatrix type="matrix" values="0 0 0 0 0.694118 0 0 0 0 0.839216 0 0 0 0 0.776471 0 0 0 1 0"/>
<feBlend mode="normal" in2="BackgroundImageFix" result="effect1_dropShadow_19_4"/>
<feBlend mode="normal" in="SourceGraphic" in2="effect1_dropShadow_19_4" result="shape"/>
</filter>
</defs>
</svg>
